#!OML:ASF X:\für Bonn\!DataBase\2005_08_12_Daniel\c3d\Daniel.ASF
:FULLY-SPECIFIED
:DEGREES
238
root 0.902606 17.4874 17.4355 -4.80438 -329.843 361.302
lowerback 13.8661 -3.78303 4.6325
upperback 2.98775 -4.43041 -2.35814
thorax -5.13615 -2.24486 -4.29301
lowerneck 1.28005 8.86965 3.40864
upperneck 5.52701 13.0919 -18.2073
head 2.86933 6.28337 -5.67494
rclavicle 2.96438e-014 3.37934e-015
rhumerus -49.1859 -2.40413 -88.2503
rradius 46.0058
rwrist -35.5511
rhand -3.5891 14.6367
rfingers 7.12502
rthumb 22.1485 -14.1146
lclavicle 2.96438e-014 3.37934e-015
lhumerus -30.9989 19.1641 84.1434
lradius 38.2626
lwrist -11.2759
lhand -10.3952 -6.73069
lfingers 7.12502
lthumb 15.6031 22.66
rfemur 0.673533 13.63 17.3356
rtibia 23.9172
rfoot -21.5357 -8.00621
rtoes -13.395
lfemur -16.3623 -16.1027 -16.8592
ltibia 34.0443
lfoot -14.7359 -7.17297
ltoes -13.9131
239
root 0.878964 17.4895 17.4131 -4.82952 -329.063 361.276
lowerback 13.8291 -3.73101 4.94869
upperback 3.04097 -4.31991 -2.41588
thorax -5.07394 -2.19242 -4.55873
lowerneck 1.62117 8.95453 3.57734
upperneck 5.70433 13.2525 -18.3589
head 2.90272 6.37316 -5.75459
rclavicle 1.06598e-014 -8.74653e-015
rhumerus -48.1691 -2.21865 -87.6761
rradius 43.6007
rwrist -31.769
rhand -4.22721 14.9851
rfingers 7.12502
rthumb 21.5358 -13.8376
lclavicle 1.06598e-014 -8.74653e-015
lhumerus -30.8272 18.8064 84.4754
lradius 38.0972
lwrist -11.4633
lhand -10.3415 -6.99798
lfingers 7.12502
lthumb 15.6548 22.3887
rfemur 0.895225 13.7201 17.5075
rtibia 23.758
rfoot -21.7765 -8.85726
rtoes -13.4065
lfemur -16.518 -15.1746 -17.024
ltibia 34.038
lfoot -14.6983 -6.35131
ltoes -13.9862
240
root 0.85676 17.4902 17.3902 -4.83396 -328.291 361.286
lowerback 13.7665 -3.66077 5.23311
upperback 3.09285 -4.1923 -2.4873
thorax -4.99428 -2.13052 -4.82582
lowerneck 2.02474 9.02561 3.79034
upperneck 5.84484 13.3905 -18.5267
head 2.91643 6.4583 -5.85191
rclavicle 2.85504e-014 1.27222e-014
rhumerus -47.0257 -2.03139 -87.1388
rradius 40.9766
rwrist -28.083
rhand -4.99118 15.2011
rfingers 7.12502
rthumb 20.8019 -13.7039
lclavicle 2.85504e-014 1.27222e-014
lhumerus -30.6733 18.4377 84.7817
lradius 37.8963
lwrist -11.7273
lhand -10.3048 -7.21583
lfingers 7.12502
lthumb 15.6901 22.168
rfemur 1.10388 13.8652 17.6459
rtibia 23.6145
rfoot -22.0275 -9.71117
rtoes -13.2512
lfemur -16.6546 -14.188 -17.2382
ltibia 34.0365
lfoot -14.6735 -5.41192
ltoes -14.0608
241
root 0.836053 17.4895 17.3653 -4.83955 -327.494 361.294
lowerback 13.6984 -3.59527 5.52089
upperback 3.14009 -4.07108 -2.55582
thorax -4.91571 -2.07151 -5.09074
lowerneck 2.50837 9.08738 4.07573
upperneck 5.93145 13.5182 -18.7932
head 2.91141 6.54614 -5.99755
rclavicle 1.96548e-014 9.34288e-015
rhumerus -45.8196 -1.8581 -86.6111
rradius 38.1993
rwrist -24.3502
rhand -5.84168 15.3466
rfingers 7.12502
rthumb 19.9845 -13.6457
lclavicle 1.96548e-014 9.34288e-015
lhumerus -30.5337 18.0167 85.0696
lradius 37.6673
lwrist -11.9256
lhand -10.2487 -7.34838
lfingers 7.12502
lthumb 15.7441 22.0312
rfemur 1.30834 14.0234 17.7878
rtibia 23.4925
rfoot -22.317 -10.596
rtoes -13.1965
lfemur -16.792 -13.1419 -17.46
ltibia 34.0421
lfoot -14.6367 -4.45739
ltoes -13.9064
242
root 0.816819 17.4891 17.3405 -4.86174 -326.707 361.288
lowerback 13.6318 -3.51922 5.80722
upperback 3.18949 -3.93571 -2.61112
thorax -4.83095 -2.0047 -5.34358
lowerneck 2.97692 9.14901 4.32149
upperneck 6.02084 13.6475 -19.0402
head 2.9067 6.63415 -6.13083
rclavicle 2.48978e-014 9.93923e-016
rhumerus -44.6166 -1.72632 -86.0694
rradius 35.3788
rwrist -20.4657
rhand -6.80999 15.3274
rfingers 7.12502
rthumb 19.0536 -13.7594
lclavicle 2.48978e-014 9.93923e-016
lhumerus -30.3836 17.5732 85.3477
lradius 37.3772
lwrist -12.1431
lhand -10.1364 -7.47198
lfingers 7.12502
lthumb 15.8523 21.8991
rfemur 1.52672 14.1838 17.94
rtibia 23.3666
rfoot -22.6094 -11.4749
rtoes -13.122
lfemur -16.9108 -12.0587 -17.6694
ltibia 34.0703
lfoot -14.6716 -3.50041
ltoes -13.6679
243
root 0.798574 17.4907 17.3159 -4.85791 -325.913 361.298
lowerback 13.577 -3.44083 6.04597
upperback 3.20867 -3.80226 -2.63879
thorax -4.77848 -1.93955 -5.53816
lowerneck 3.39607 9.2288 4.48997
upperneck 6.15538 13.809 -19.2537
head 2.92093 6.73258 -6.23689
rclavicle 4.54471e-014 -2.18663e-015
rhumerus -43.5089 -1.68965 -85.4303
rradius 32.635
rwrist -16.384
rhand -7.75395 15.1576
rfingers 7.12502
rthumb 18.1456 -14.016
lclavicle 4.54471e-014 -2.18663e-015
lhumerus -30.2611 17.2112 85.6083
lradius 37.0088
lwrist -12.4278
lhand -10.0509 -7.60687
lfingers 7.12502
lthumb 15.9346 21.7576
rfemur 1.74402 14.3791 18.0817
rtibia 23.2201
rfoot -22.9252 -12.368
rtoes -12.9048
lfemur -17.0593 -10.9678 -17.8763
ltibia 34.1258
lfoot -14.7292 -2.61696
ltoes -13.4361
244
root 0.782094 17.4932 17.2913 -4.85587 -325.128 361.323
lowerback 13.54 -3.35855 6.27355
upperback 3.22659 -3.66467 -2.67269
thorax -4.73494 -1.8723 -5.73314
lowerneck 3.7717 9.31375 4.65783
upperneck 6.29262 13.9804 -19.4617
head 2.9449 6.83397 -6.33855
rclavicle -4.23411e-014 8.15017e-015
rhumerus -42.508 -1.86308 -84.7037
rradius 30.0415
rwrist -12.0564
rhand -8.62811 14.8689
rfingers 7.12502
rthumb 17.3044 -14.3808
lclavicle -4.23411e-014 8.15017e-015
lhumerus -30.1508 16.8603 85.8284
lradius 36.627
lwrist -12.6629
lhand -9.8761 -7.65288
lfingers 7.12502
lthumb 16.103 21.6981
rfemur 1.98958 14.6312 18.2213
rtibia 23.0472
rfoot -23.2482 -13.3102
rtoes -12.8586
lfemur -17.1989 -9.88626 -18.0869
ltibia 34.212
lfoot -14.8687 -1.75296
ltoes -13.4565
245
root 0.766522 17.4957 17.2673 -4.85875 -324.324 361.335
lowerback 13.5188 -3.28804 6.46584
upperback 3.2312 -3.54484 -2.67167
thorax -4.71136 -1.81405 -5.86615
lowerneck 4.07221 9.42557 4.75068
upperneck 6.47546 14.1954 -19.6401
head 2.9943 6.94951 -6.41196
rclavicle 1.62258e-014 -3.37934e-015
rhumerus -41.5806 -2.37718 -83.7608
rradius 27.5118
rwrist -7.28617
rhand -9.4407 14.5685
rfingers 7.12502
rthumb 16.5222 -14.7481
lclavicle 1.62258e-014 -3.37934e-015
lhumerus -30.0679 16.6381 86.02
lradius 36.2102
lwrist -13.0698
lhand -9.65708 -7.68007
lfingers 7.12502
lthumb 16.3139 21.6537
rfemur 2.25116 14.8758 18.3727
rtibia 22.862
rfoot -23.5985 -14.2227
rtoes -12.6639
lfemur -17.3451 -8.83885 -18.2572
ltibia 34.3227
lfoot -15.0064 -0.920436
ltoes -13.3361
